<mxfile host="app.diagrams.net" modified="2022-05-08T14:47:27.230Z" agent="5.0 (Windows NT 10.0; Win64; x64) AppleWebKit/537.36 (KHTML, like Gecko) Chrome/101.0.4951.54 Safari/537.36 Edg/101.0.1210.39" etag="0pZ8N8pSFokNHR6ZSGAB" version="18.0.2" type="github">
  <diagram id="WJnVAwbH31ghWJ0-0Aa_" name="Page-1">
    <mxGraphModel dx="1695" dy="1428" grid="1" gridSize="10" guides="1" tooltips="1" connect="1" arrows="1" fold="1" page="1" pageScale="1" pageWidth="513" pageHeight="308" math="0" shadow="0">
      <root>
        <mxCell id="0" />
        <mxCell id="1" parent="0" />
        <mxCell id="XAXn_dpVB3Lyqn0WU6YM-5" value="" style="rounded=1;whiteSpace=wrap;html=1;sketch=0;fontFamily=Helvetica;fontSize=11;fillColor=#f5f5f5;fontColor=#333333;strokeColor=#666666;" vertex="1" parent="1">
          <mxGeometry x="383" width="130" height="306" as="geometry" />
        </mxCell>
        <mxCell id="XAXn_dpVB3Lyqn0WU6YM-4" value="" style="ellipse;whiteSpace=wrap;html=1;rounded=0;dashed=1;sketch=0;fontFamily=Helvetica;fontSize=11;strokeColor=default;strokeWidth=1;fillColor=none;gradientColor=none;" vertex="1" parent="1">
          <mxGeometry x="393" y="161.5" width="100" height="135" as="geometry" />
        </mxCell>
        <mxCell id="CqRwOnlm2M2Rv3KDCL8K-269" value="" style="rounded=1;whiteSpace=wrap;html=1;sketch=0;fontFamily=Helvetica;fontSize=11;dashed=1;" parent="1" vertex="1">
          <mxGeometry width="373" height="306" as="geometry" />
        </mxCell>
        <mxCell id="CqRwOnlm2M2Rv3KDCL8K-288" value="" style="rounded=1;whiteSpace=wrap;html=1;sketch=0;fontFamily=Helvetica;fontSize=11;fillColor=#eeeeee;strokeColor=#36393d;" parent="1" vertex="1">
          <mxGeometry x="10" y="40" width="193" height="210" as="geometry" />
        </mxCell>
        <mxCell id="CqRwOnlm2M2Rv3KDCL8K-53" value="" style="shape=table;whiteSpace=wrap;startSize=0;container=1;collapsible=0;childLayout=tableLayout;html=1;" parent="1" vertex="1">
          <mxGeometry x="47" y="104" width="120" height="116" as="geometry" />
        </mxCell>
        <mxCell id="CqRwOnlm2M2Rv3KDCL8K-89" style="shape=tableRow;horizontal=0;startSize=0;swimlaneHead=0;swimlaneBody=0;top=0;left=0;bottom=0;right=0;collapsible=0;dropTarget=0;fillColor=none;points=[[0,0.5],[1,0.5]];portConstraint=eastwest;" parent="CqRwOnlm2M2Rv3KDCL8K-53" vertex="1">
          <mxGeometry width="120" height="27" as="geometry" />
        </mxCell>
        <mxCell id="CqRwOnlm2M2Rv3KDCL8K-90" style="shape=partialRectangle;html=1;whiteSpace=wrap;connectable=0;top=0;left=0;bottom=0;right=0;overflow=hidden;" parent="CqRwOnlm2M2Rv3KDCL8K-89" vertex="1">
          <mxGeometry width="30" height="27" as="geometry">
            <mxRectangle width="30" height="27" as="alternateBounds" />
          </mxGeometry>
        </mxCell>
        <mxCell id="CqRwOnlm2M2Rv3KDCL8K-91" value="a" style="shape=partialRectangle;html=1;whiteSpace=wrap;connectable=0;top=0;left=0;bottom=0;right=0;overflow=hidden;" parent="CqRwOnlm2M2Rv3KDCL8K-89" vertex="1">
          <mxGeometry x="30" width="30" height="27" as="geometry">
            <mxRectangle width="30" height="27" as="alternateBounds" />
          </mxGeometry>
        </mxCell>
        <mxCell id="CqRwOnlm2M2Rv3KDCL8K-92" value="b" style="shape=partialRectangle;html=1;whiteSpace=wrap;connectable=0;top=0;left=0;bottom=0;right=0;overflow=hidden;" parent="CqRwOnlm2M2Rv3KDCL8K-89" vertex="1">
          <mxGeometry x="60" width="30" height="27" as="geometry">
            <mxRectangle width="30" height="27" as="alternateBounds" />
          </mxGeometry>
        </mxCell>
        <mxCell id="CqRwOnlm2M2Rv3KDCL8K-93" value="c" style="shape=partialRectangle;html=1;whiteSpace=wrap;connectable=0;top=0;left=0;bottom=0;right=0;overflow=hidden;" parent="CqRwOnlm2M2Rv3KDCL8K-89" vertex="1">
          <mxGeometry x="90" width="30" height="27" as="geometry">
            <mxRectangle width="30" height="27" as="alternateBounds" />
          </mxGeometry>
        </mxCell>
        <mxCell id="CqRwOnlm2M2Rv3KDCL8K-54" value="" style="shape=tableRow;horizontal=0;startSize=0;swimlaneHead=0;swimlaneBody=0;top=0;left=0;bottom=0;right=0;collapsible=0;dropTarget=0;fillColor=none;points=[[0,0.5],[1,0.5]];portConstraint=eastwest;" parent="CqRwOnlm2M2Rv3KDCL8K-53" vertex="1">
          <mxGeometry y="27" width="120" height="29" as="geometry" />
        </mxCell>
        <mxCell id="CqRwOnlm2M2Rv3KDCL8K-55" value="a" style="shape=partialRectangle;html=1;whiteSpace=wrap;connectable=0;top=0;left=0;bottom=0;right=0;overflow=hidden;" parent="CqRwOnlm2M2Rv3KDCL8K-54" vertex="1">
          <mxGeometry width="30" height="29" as="geometry">
            <mxRectangle width="30" height="29" as="alternateBounds" />
          </mxGeometry>
        </mxCell>
        <mxCell id="CqRwOnlm2M2Rv3KDCL8K-56" value="-" style="shape=partialRectangle;html=1;whiteSpace=wrap;connectable=0;top=0;left=0;bottom=0;right=0;overflow=hidden;" parent="CqRwOnlm2M2Rv3KDCL8K-54" vertex="1">
          <mxGeometry x="30" width="30" height="29" as="geometry">
            <mxRectangle width="30" height="29" as="alternateBounds" />
          </mxGeometry>
        </mxCell>
        <mxCell id="CqRwOnlm2M2Rv3KDCL8K-66" value="6" style="shape=partialRectangle;html=1;whiteSpace=wrap;connectable=0;top=0;left=0;bottom=0;right=0;overflow=hidden;" parent="CqRwOnlm2M2Rv3KDCL8K-54" vertex="1">
          <mxGeometry x="60" width="30" height="29" as="geometry">
            <mxRectangle width="30" height="29" as="alternateBounds" />
          </mxGeometry>
        </mxCell>
        <mxCell id="CqRwOnlm2M2Rv3KDCL8K-69" value="9" style="shape=partialRectangle;html=1;whiteSpace=wrap;connectable=0;top=0;left=0;bottom=0;right=0;overflow=hidden;" parent="CqRwOnlm2M2Rv3KDCL8K-54" vertex="1">
          <mxGeometry x="90" width="30" height="29" as="geometry">
            <mxRectangle width="30" height="29" as="alternateBounds" />
          </mxGeometry>
        </mxCell>
        <mxCell id="CqRwOnlm2M2Rv3KDCL8K-58" value="" style="shape=tableRow;horizontal=0;startSize=0;swimlaneHead=0;swimlaneBody=0;top=0;left=0;bottom=0;right=0;collapsible=0;dropTarget=0;fillColor=none;points=[[0,0.5],[1,0.5]];portConstraint=eastwest;" parent="CqRwOnlm2M2Rv3KDCL8K-53" vertex="1">
          <mxGeometry y="56" width="120" height="30" as="geometry" />
        </mxCell>
        <mxCell id="CqRwOnlm2M2Rv3KDCL8K-59" value="b" style="shape=partialRectangle;html=1;whiteSpace=wrap;connectable=0;top=0;left=0;bottom=0;right=0;overflow=hidden;" parent="CqRwOnlm2M2Rv3KDCL8K-58" vertex="1">
          <mxGeometry width="30" height="30" as="geometry">
            <mxRectangle width="30" height="30" as="alternateBounds" />
          </mxGeometry>
        </mxCell>
        <mxCell id="CqRwOnlm2M2Rv3KDCL8K-60" value="6" style="shape=partialRectangle;html=1;whiteSpace=wrap;connectable=0;top=0;left=0;bottom=0;right=0;overflow=hidden;" parent="CqRwOnlm2M2Rv3KDCL8K-58" vertex="1">
          <mxGeometry x="30" width="30" height="30" as="geometry">
            <mxRectangle width="30" height="30" as="alternateBounds" />
          </mxGeometry>
        </mxCell>
        <mxCell id="CqRwOnlm2M2Rv3KDCL8K-67" value="-" style="shape=partialRectangle;html=1;whiteSpace=wrap;connectable=0;top=0;left=0;bottom=0;right=0;overflow=hidden;" parent="CqRwOnlm2M2Rv3KDCL8K-58" vertex="1">
          <mxGeometry x="60" width="30" height="30" as="geometry">
            <mxRectangle width="30" height="30" as="alternateBounds" />
          </mxGeometry>
        </mxCell>
        <mxCell id="CqRwOnlm2M2Rv3KDCL8K-70" value="4" style="shape=partialRectangle;html=1;whiteSpace=wrap;connectable=0;top=0;left=0;bottom=0;right=0;overflow=hidden;" parent="CqRwOnlm2M2Rv3KDCL8K-58" vertex="1">
          <mxGeometry x="90" width="30" height="30" as="geometry">
            <mxRectangle width="30" height="30" as="alternateBounds" />
          </mxGeometry>
        </mxCell>
        <mxCell id="CqRwOnlm2M2Rv3KDCL8K-75" style="shape=tableRow;horizontal=0;startSize=0;swimlaneHead=0;swimlaneBody=0;top=0;left=0;bottom=0;right=0;collapsible=0;dropTarget=0;fillColor=none;points=[[0,0.5],[1,0.5]];portConstraint=eastwest;" parent="CqRwOnlm2M2Rv3KDCL8K-53" vertex="1">
          <mxGeometry y="86" width="120" height="30" as="geometry" />
        </mxCell>
        <mxCell id="CqRwOnlm2M2Rv3KDCL8K-76" value="c" style="shape=partialRectangle;html=1;whiteSpace=wrap;connectable=0;top=0;left=0;bottom=0;right=0;overflow=hidden;" parent="CqRwOnlm2M2Rv3KDCL8K-75" vertex="1">
          <mxGeometry width="30" height="30" as="geometry">
            <mxRectangle width="30" height="30" as="alternateBounds" />
          </mxGeometry>
        </mxCell>
        <mxCell id="CqRwOnlm2M2Rv3KDCL8K-77" value="9" style="shape=partialRectangle;html=1;whiteSpace=wrap;connectable=0;top=0;left=0;bottom=0;right=0;overflow=hidden;pointerEvents=1;" parent="CqRwOnlm2M2Rv3KDCL8K-75" vertex="1">
          <mxGeometry x="30" width="30" height="30" as="geometry">
            <mxRectangle width="30" height="30" as="alternateBounds" />
          </mxGeometry>
        </mxCell>
        <mxCell id="CqRwOnlm2M2Rv3KDCL8K-78" value="4" style="shape=partialRectangle;html=1;whiteSpace=wrap;connectable=0;top=0;left=0;bottom=0;right=0;overflow=hidden;" parent="CqRwOnlm2M2Rv3KDCL8K-75" vertex="1">
          <mxGeometry x="60" width="30" height="30" as="geometry">
            <mxRectangle width="30" height="30" as="alternateBounds" />
          </mxGeometry>
        </mxCell>
        <mxCell id="CqRwOnlm2M2Rv3KDCL8K-79" value="-" style="shape=partialRectangle;html=1;whiteSpace=wrap;connectable=0;top=0;left=0;bottom=0;right=0;overflow=hidden;" parent="CqRwOnlm2M2Rv3KDCL8K-75" vertex="1">
          <mxGeometry x="90" width="30" height="30" as="geometry">
            <mxRectangle width="30" height="30" as="alternateBounds" />
          </mxGeometry>
        </mxCell>
        <mxCell id="CqRwOnlm2M2Rv3KDCL8K-107" value="" style="endArrow=classic;html=1;sketch=0;rounded=1;strokeColor=#36393D;dashed=1;fillColor=#eeeeee;" parent="1" edge="1">
          <mxGeometry width="50" height="50" relative="1" as="geometry">
            <mxPoint x="173" y="150" as="sourcePoint" />
            <mxPoint x="233" y="70" as="targetPoint" />
          </mxGeometry>
        </mxCell>
        <mxCell id="CqRwOnlm2M2Rv3KDCL8K-108" value="" style="endArrow=classic;html=1;sketch=0;rounded=1;strokeColor=#36393D;dashed=1;" parent="1" edge="1">
          <mxGeometry width="50" height="50" relative="1" as="geometry">
            <mxPoint x="173" y="150" as="sourcePoint" />
            <mxPoint x="233" y="180" as="targetPoint" />
          </mxGeometry>
        </mxCell>
        <mxCell id="CqRwOnlm2M2Rv3KDCL8K-109" value="" style="endArrow=classic;html=1;sketch=0;rounded=1;strokeColor=#36393D;dashed=1;" parent="1" edge="1">
          <mxGeometry width="50" height="50" relative="1" as="geometry">
            <mxPoint x="173" y="150" as="sourcePoint" />
            <mxPoint x="233" y="230" as="targetPoint" />
          </mxGeometry>
        </mxCell>
        <mxCell id="CqRwOnlm2M2Rv3KDCL8K-128" style="edgeStyle=none;rounded=1;sketch=0;orthogonalLoop=1;jettySize=auto;html=1;strokeColor=#ACB5C2;dashed=1;endArrow=none;endFill=0;" parent="1" source="CqRwOnlm2M2Rv3KDCL8K-110" edge="1">
          <mxGeometry relative="1" as="geometry">
            <mxPoint x="253" y="54.5" as="targetPoint" />
          </mxGeometry>
        </mxCell>
        <mxCell id="CqRwOnlm2M2Rv3KDCL8K-131" style="edgeStyle=none;rounded=1;sketch=0;orthogonalLoop=1;jettySize=auto;html=1;entryX=0.197;entryY=0.014;entryDx=0;entryDy=0;entryPerimeter=0;dashed=1;endArrow=none;endFill=0;strokeColor=#ACB5C2;" parent="1" source="CqRwOnlm2M2Rv3KDCL8K-110" target="CqRwOnlm2M2Rv3KDCL8K-111" edge="1">
          <mxGeometry relative="1" as="geometry" />
        </mxCell>
        <mxCell id="CqRwOnlm2M2Rv3KDCL8K-110" value="" style="verticalLabelPosition=bottom;verticalAlign=top;html=1;shape=mxgraph.basic.polygon;polyCoords=[[0.25,0],[0.75,0],[1,0.25],[1,0.75],[0.75,1],[0.25,1],[0,0.75],[0,0.25]];polyline=0;rounded=0;sketch=0;" parent="1" vertex="1">
          <mxGeometry x="243" y="15.5" width="20" height="16" as="geometry" />
        </mxCell>
        <mxCell id="CqRwOnlm2M2Rv3KDCL8K-111" value="" style="verticalLabelPosition=bottom;verticalAlign=top;html=1;shape=mxgraph.basic.polygon;polyCoords=[[0.25,0],[0.75,0],[1,0.25],[1,0.75],[0.75,1],[0.25,1],[0,0.75],[0,0.25]];polyline=0;rounded=0;sketch=0;" parent="1" vertex="1">
          <mxGeometry x="283" y="53.5" width="20" height="16" as="geometry" />
        </mxCell>
        <mxCell id="CqRwOnlm2M2Rv3KDCL8K-129" style="edgeStyle=none;rounded=1;sketch=0;orthogonalLoop=1;jettySize=auto;html=1;entryX=-0.011;entryY=0.483;entryDx=0;entryDy=0;entryPerimeter=0;dashed=1;endArrow=none;endFill=0;strokeColor=#ACB5C2;" parent="1" source="CqRwOnlm2M2Rv3KDCL8K-112" target="CqRwOnlm2M2Rv3KDCL8K-111" edge="1">
          <mxGeometry relative="1" as="geometry" />
        </mxCell>
        <mxCell id="CqRwOnlm2M2Rv3KDCL8K-112" value="" style="verticalLabelPosition=bottom;verticalAlign=top;html=1;shape=mxgraph.basic.polygon;polyCoords=[[0.25,0],[0.75,0],[1,0.25],[1,0.75],[0.75,1],[0.25,1],[0,0.75],[0,0.25]];polyline=0;rounded=0;sketch=0;" parent="1" vertex="1">
          <mxGeometry x="243" y="53.5" width="20" height="16" as="geometry" />
        </mxCell>
        <mxCell id="CqRwOnlm2M2Rv3KDCL8K-142" value="" style="endArrow=classic;html=1;sketch=0;rounded=1;strokeColor=#36393D;dashed=1;" parent="1" edge="1">
          <mxGeometry width="50" height="50" relative="1" as="geometry">
            <mxPoint x="173" y="150" as="sourcePoint" />
            <mxPoint x="233" y="120" as="targetPoint" />
          </mxGeometry>
        </mxCell>
        <mxCell id="CqRwOnlm2M2Rv3KDCL8K-143" value="(1)" style="text;html=1;align=center;verticalAlign=middle;resizable=0;points=[];autosize=1;strokeColor=none;fillColor=none;" parent="1" vertex="1">
          <mxGeometry x="317" y="36" width="30" height="20" as="geometry" />
        </mxCell>
        <mxCell id="CqRwOnlm2M2Rv3KDCL8K-144" value="(2)" style="text;html=1;align=center;verticalAlign=middle;resizable=0;points=[];autosize=1;strokeColor=none;fillColor=none;" parent="1" vertex="1">
          <mxGeometry x="317" y="104" width="30" height="20" as="geometry" />
        </mxCell>
        <mxCell id="CqRwOnlm2M2Rv3KDCL8K-145" value="(3)" style="text;html=1;align=center;verticalAlign=middle;resizable=0;points=[];autosize=1;strokeColor=none;fillColor=none;" parent="1" vertex="1">
          <mxGeometry x="317" y="166" width="30" height="20" as="geometry" />
        </mxCell>
        <mxCell id="CqRwOnlm2M2Rv3KDCL8K-146" value="(4)" style="text;html=1;align=center;verticalAlign=middle;resizable=0;points=[];autosize=1;strokeColor=none;fillColor=none;" parent="1" vertex="1">
          <mxGeometry x="317" y="226" width="30" height="20" as="geometry" />
        </mxCell>
        <mxCell id="CqRwOnlm2M2Rv3KDCL8K-147" value="a" style="text;html=1;align=center;verticalAlign=middle;resizable=0;points=[];autosize=1;strokeColor=none;fillColor=none;" parent="1" vertex="1">
          <mxGeometry x="243" y="13.5" width="20" height="20" as="geometry" />
        </mxCell>
        <mxCell id="CqRwOnlm2M2Rv3KDCL8K-149" value="c" style="text;html=1;align=center;verticalAlign=middle;resizable=0;points=[];autosize=1;strokeColor=none;fillColor=none;" parent="1" vertex="1">
          <mxGeometry x="283" y="51.5" width="20" height="20" as="geometry" />
        </mxCell>
        <mxCell id="CqRwOnlm2M2Rv3KDCL8K-150" value="b" style="text;html=1;align=center;verticalAlign=middle;resizable=0;points=[];autosize=1;strokeColor=none;fillColor=none;" parent="1" vertex="1">
          <mxGeometry x="243" y="51.5" width="20" height="20" as="geometry" />
        </mxCell>
        <mxCell id="CqRwOnlm2M2Rv3KDCL8K-160" value="&lt;p&gt;&lt;font style=&quot;font-size: 11px;&quot;&gt;6&lt;/font&gt;&lt;/p&gt;" style="text;html=1;align=center;verticalAlign=middle;resizable=0;points=[];autosize=1;strokeColor=none;fillColor=none;fontSize=10;" parent="1" vertex="1">
          <mxGeometry x="238" y="22.5" width="20" height="40" as="geometry" />
        </mxCell>
        <mxCell id="CqRwOnlm2M2Rv3KDCL8K-161" value="9" style="text;html=1;align=center;verticalAlign=middle;resizable=0;points=[];autosize=1;strokeColor=none;fillColor=none;fontSize=11;fontFamily=Helvetica;" parent="1" vertex="1">
          <mxGeometry x="267" y="27.5" width="20" height="20" as="geometry" />
        </mxCell>
        <mxCell id="CqRwOnlm2M2Rv3KDCL8K-162" value="4" style="text;html=1;align=center;verticalAlign=middle;resizable=0;points=[];autosize=1;strokeColor=none;fillColor=none;fontSize=11;fontFamily=Helvetica;" parent="1" vertex="1">
          <mxGeometry x="262" y="58.5" width="20" height="20" as="geometry" />
        </mxCell>
        <mxCell id="CqRwOnlm2M2Rv3KDCL8K-223" style="edgeStyle=none;rounded=1;sketch=0;orthogonalLoop=1;jettySize=auto;html=1;strokeColor=#ACB5C2;dashed=1;endArrow=none;endFill=0;" parent="1" source="CqRwOnlm2M2Rv3KDCL8K-225" edge="1">
          <mxGeometry relative="1" as="geometry">
            <mxPoint x="253" y="121" as="targetPoint" />
          </mxGeometry>
        </mxCell>
        <mxCell id="CqRwOnlm2M2Rv3KDCL8K-224" style="edgeStyle=none;rounded=1;sketch=0;orthogonalLoop=1;jettySize=auto;html=1;entryX=0.197;entryY=0.014;entryDx=0;entryDy=0;entryPerimeter=0;dashed=1;endArrow=none;endFill=0;strokeColor=#ACB5C2;" parent="1" source="CqRwOnlm2M2Rv3KDCL8K-225" target="CqRwOnlm2M2Rv3KDCL8K-226" edge="1">
          <mxGeometry relative="1" as="geometry" />
        </mxCell>
        <mxCell id="CqRwOnlm2M2Rv3KDCL8K-225" value="" style="verticalLabelPosition=bottom;verticalAlign=top;html=1;shape=mxgraph.basic.polygon;polyCoords=[[0.25,0],[0.75,0],[1,0.25],[1,0.75],[0.75,1],[0.25,1],[0,0.75],[0,0.25]];polyline=0;rounded=0;sketch=0;" parent="1" vertex="1">
          <mxGeometry x="243" y="82" width="20" height="16" as="geometry" />
        </mxCell>
        <mxCell id="CqRwOnlm2M2Rv3KDCL8K-226" value="" style="verticalLabelPosition=bottom;verticalAlign=top;html=1;shape=mxgraph.basic.polygon;polyCoords=[[0.25,0],[0.75,0],[1,0.25],[1,0.75],[0.75,1],[0.25,1],[0,0.75],[0,0.25]];polyline=0;rounded=0;sketch=0;" parent="1" vertex="1">
          <mxGeometry x="283" y="120" width="20" height="16" as="geometry" />
        </mxCell>
        <mxCell id="CqRwOnlm2M2Rv3KDCL8K-228" value="" style="verticalLabelPosition=bottom;verticalAlign=top;html=1;shape=mxgraph.basic.polygon;polyCoords=[[0.25,0],[0.75,0],[1,0.25],[1,0.75],[0.75,1],[0.25,1],[0,0.75],[0,0.25]];polyline=0;rounded=0;sketch=0;" parent="1" vertex="1">
          <mxGeometry x="243" y="120" width="20" height="16" as="geometry" />
        </mxCell>
        <mxCell id="CqRwOnlm2M2Rv3KDCL8K-229" value="a" style="text;html=1;align=center;verticalAlign=middle;resizable=0;points=[];autosize=1;strokeColor=none;fillColor=none;" parent="1" vertex="1">
          <mxGeometry x="243" y="80" width="20" height="20" as="geometry" />
        </mxCell>
        <mxCell id="CqRwOnlm2M2Rv3KDCL8K-230" value="c" style="text;html=1;align=center;verticalAlign=middle;resizable=0;points=[];autosize=1;strokeColor=none;fillColor=none;" parent="1" vertex="1">
          <mxGeometry x="283" y="118" width="20" height="20" as="geometry" />
        </mxCell>
        <mxCell id="CqRwOnlm2M2Rv3KDCL8K-231" value="b" style="text;html=1;align=center;verticalAlign=middle;resizable=0;points=[];autosize=1;strokeColor=none;fillColor=none;" parent="1" vertex="1">
          <mxGeometry x="243" y="118" width="20" height="20" as="geometry" />
        </mxCell>
        <mxCell id="CqRwOnlm2M2Rv3KDCL8K-233" value="10" style="text;html=1;align=center;verticalAlign=middle;resizable=0;points=[];autosize=1;strokeColor=none;fillColor=none;fontSize=11;fontFamily=Helvetica;" parent="1" vertex="1">
          <mxGeometry x="262" y="94" width="30" height="20" as="geometry" />
        </mxCell>
        <mxCell id="CqRwOnlm2M2Rv3KDCL8K-236" style="edgeStyle=none;rounded=1;sketch=0;orthogonalLoop=1;jettySize=auto;html=1;entryX=0.197;entryY=0.014;entryDx=0;entryDy=0;entryPerimeter=0;dashed=1;endArrow=none;endFill=0;strokeColor=#ACB5C2;" parent="1" source="CqRwOnlm2M2Rv3KDCL8K-237" target="CqRwOnlm2M2Rv3KDCL8K-238" edge="1">
          <mxGeometry relative="1" as="geometry" />
        </mxCell>
        <mxCell id="CqRwOnlm2M2Rv3KDCL8K-237" value="" style="verticalLabelPosition=bottom;verticalAlign=top;html=1;shape=mxgraph.basic.polygon;polyCoords=[[0.25,0],[0.75,0],[1,0.25],[1,0.75],[0.75,1],[0.25,1],[0,0.75],[0,0.25]];polyline=0;rounded=0;sketch=0;" parent="1" vertex="1">
          <mxGeometry x="243" y="147" width="20" height="16" as="geometry" />
        </mxCell>
        <mxCell id="CqRwOnlm2M2Rv3KDCL8K-238" value="" style="verticalLabelPosition=bottom;verticalAlign=top;html=1;shape=mxgraph.basic.polygon;polyCoords=[[0.25,0],[0.75,0],[1,0.25],[1,0.75],[0.75,1],[0.25,1],[0,0.75],[0,0.25]];polyline=0;rounded=0;sketch=0;" parent="1" vertex="1">
          <mxGeometry x="283" y="185" width="20" height="16" as="geometry" />
        </mxCell>
        <mxCell id="CqRwOnlm2M2Rv3KDCL8K-239" style="edgeStyle=none;rounded=1;sketch=0;orthogonalLoop=1;jettySize=auto;html=1;entryX=-0.011;entryY=0.483;entryDx=0;entryDy=0;entryPerimeter=0;dashed=1;endArrow=none;endFill=0;strokeColor=#ACB5C2;" parent="1" source="CqRwOnlm2M2Rv3KDCL8K-240" target="CqRwOnlm2M2Rv3KDCL8K-238" edge="1">
          <mxGeometry relative="1" as="geometry" />
        </mxCell>
        <mxCell id="CqRwOnlm2M2Rv3KDCL8K-240" value="" style="verticalLabelPosition=bottom;verticalAlign=top;html=1;shape=mxgraph.basic.polygon;polyCoords=[[0.25,0],[0.75,0],[1,0.25],[1,0.75],[0.75,1],[0.25,1],[0,0.75],[0,0.25]];polyline=0;rounded=0;sketch=0;" parent="1" vertex="1">
          <mxGeometry x="243" y="185" width="20" height="16" as="geometry" />
        </mxCell>
        <mxCell id="CqRwOnlm2M2Rv3KDCL8K-241" value="a" style="text;html=1;align=center;verticalAlign=middle;resizable=0;points=[];autosize=1;strokeColor=none;fillColor=none;" parent="1" vertex="1">
          <mxGeometry x="243" y="145" width="20" height="20" as="geometry" />
        </mxCell>
        <mxCell id="CqRwOnlm2M2Rv3KDCL8K-242" value="c" style="text;html=1;align=center;verticalAlign=middle;resizable=0;points=[];autosize=1;strokeColor=none;fillColor=none;" parent="1" vertex="1">
          <mxGeometry x="283" y="183" width="20" height="20" as="geometry" />
        </mxCell>
        <mxCell id="CqRwOnlm2M2Rv3KDCL8K-243" value="b" style="text;html=1;align=center;verticalAlign=middle;resizable=0;points=[];autosize=1;strokeColor=none;fillColor=none;" parent="1" vertex="1">
          <mxGeometry x="243" y="183" width="20" height="20" as="geometry" />
        </mxCell>
        <mxCell id="CqRwOnlm2M2Rv3KDCL8K-245" value="10" style="text;html=1;align=center;verticalAlign=middle;resizable=0;points=[];autosize=1;strokeColor=none;fillColor=none;fontSize=11;fontFamily=Helvetica;" parent="1" vertex="1">
          <mxGeometry x="262" y="159" width="30" height="20" as="geometry" />
        </mxCell>
        <mxCell id="CqRwOnlm2M2Rv3KDCL8K-246" value="14" style="text;html=1;align=center;verticalAlign=middle;resizable=0;points=[];autosize=1;strokeColor=none;fillColor=none;fontSize=11;fontFamily=Helvetica;" parent="1" vertex="1">
          <mxGeometry x="257" y="190" width="30" height="20" as="geometry" />
        </mxCell>
        <mxCell id="CqRwOnlm2M2Rv3KDCL8K-247" style="edgeStyle=none;rounded=1;sketch=0;orthogonalLoop=1;jettySize=auto;html=1;strokeColor=#ACB5C2;dashed=1;endArrow=none;endFill=0;" parent="1" source="CqRwOnlm2M2Rv3KDCL8K-249" edge="1">
          <mxGeometry relative="1" as="geometry">
            <mxPoint x="253" y="251.00000000000006" as="targetPoint" />
          </mxGeometry>
        </mxCell>
        <mxCell id="CqRwOnlm2M2Rv3KDCL8K-249" value="" style="verticalLabelPosition=bottom;verticalAlign=top;html=1;shape=mxgraph.basic.polygon;polyCoords=[[0.25,0],[0.75,0],[1,0.25],[1,0.75],[0.75,1],[0.25,1],[0,0.75],[0,0.25]];polyline=0;rounded=0;sketch=0;" parent="1" vertex="1">
          <mxGeometry x="243" y="212" width="20" height="16" as="geometry" />
        </mxCell>
        <mxCell id="CqRwOnlm2M2Rv3KDCL8K-250" value="" style="verticalLabelPosition=bottom;verticalAlign=top;html=1;shape=mxgraph.basic.polygon;polyCoords=[[0.25,0],[0.75,0],[1,0.25],[1,0.75],[0.75,1],[0.25,1],[0,0.75],[0,0.25]];polyline=0;rounded=0;sketch=0;" parent="1" vertex="1">
          <mxGeometry x="283" y="250" width="20" height="16" as="geometry" />
        </mxCell>
        <mxCell id="CqRwOnlm2M2Rv3KDCL8K-251" style="edgeStyle=none;rounded=1;sketch=0;orthogonalLoop=1;jettySize=auto;html=1;entryX=-0.011;entryY=0.483;entryDx=0;entryDy=0;entryPerimeter=0;dashed=1;endArrow=none;endFill=0;strokeColor=#ACB5C2;" parent="1" source="CqRwOnlm2M2Rv3KDCL8K-252" target="CqRwOnlm2M2Rv3KDCL8K-250" edge="1">
          <mxGeometry relative="1" as="geometry" />
        </mxCell>
        <mxCell id="CqRwOnlm2M2Rv3KDCL8K-252" value="" style="verticalLabelPosition=bottom;verticalAlign=top;html=1;shape=mxgraph.basic.polygon;polyCoords=[[0.25,0],[0.75,0],[1,0.25],[1,0.75],[0.75,1],[0.25,1],[0,0.75],[0,0.25]];polyline=0;rounded=0;sketch=0;" parent="1" vertex="1">
          <mxGeometry x="243" y="250" width="20" height="16" as="geometry" />
        </mxCell>
        <mxCell id="CqRwOnlm2M2Rv3KDCL8K-253" value="a" style="text;html=1;align=center;verticalAlign=middle;resizable=0;points=[];autosize=1;strokeColor=none;fillColor=none;" parent="1" vertex="1">
          <mxGeometry x="243" y="210" width="20" height="20" as="geometry" />
        </mxCell>
        <mxCell id="CqRwOnlm2M2Rv3KDCL8K-254" value="c" style="text;html=1;align=center;verticalAlign=middle;resizable=0;points=[];autosize=1;strokeColor=none;fillColor=none;" parent="1" vertex="1">
          <mxGeometry x="282" y="248" width="20" height="20" as="geometry" />
        </mxCell>
        <mxCell id="CqRwOnlm2M2Rv3KDCL8K-255" value="b" style="text;html=1;align=center;verticalAlign=middle;resizable=0;points=[];autosize=1;strokeColor=none;fillColor=none;" parent="1" vertex="1">
          <mxGeometry x="243" y="248" width="20" height="20" as="geometry" />
        </mxCell>
        <mxCell id="CqRwOnlm2M2Rv3KDCL8K-257" value="13" style="text;html=1;align=center;verticalAlign=middle;resizable=0;points=[];autosize=1;strokeColor=none;fillColor=none;fontSize=11;fontFamily=Helvetica;" parent="1" vertex="1">
          <mxGeometry x="230" y="229" width="30" height="20" as="geometry" />
        </mxCell>
        <mxCell id="CqRwOnlm2M2Rv3KDCL8K-258" value="15" style="text;html=1;align=center;verticalAlign=middle;resizable=0;points=[];autosize=1;strokeColor=none;fillColor=none;fontSize=11;fontFamily=Helvetica;" parent="1" vertex="1">
          <mxGeometry x="257" y="255" width="30" height="20" as="geometry" />
        </mxCell>
        <mxCell id="CqRwOnlm2M2Rv3KDCL8K-260" value="" style="verticalLabelPosition=bottom;verticalAlign=top;html=1;shape=mxgraph.basic.polygon;polyCoords=[[0.25,0],[0.75,0],[1,0.25],[1,0.75],[0.75,1],[0.25,1],[0,0.75],[0,0.25]];polyline=0;rounded=0;sketch=0;fillColor=#f5f5f5;gradientColor=#b3b3b3;strokeColor=#666666;" parent="1" vertex="1">
          <mxGeometry x="346" y="71.5" width="20" height="16" as="geometry" />
        </mxCell>
        <mxCell id="CqRwOnlm2M2Rv3KDCL8K-261" value="" style="verticalLabelPosition=bottom;verticalAlign=top;html=1;shape=mxgraph.basic.polygon;polyCoords=[[0.25,0],[0.75,0],[1,0.25],[1,0.75],[0.75,1],[0.25,1],[0,0.75],[0,0.25]];polyline=0;rounded=0;sketch=0;fillColor=#f5f5f5;gradientColor=#b3b3b3;strokeColor=#666666;" parent="1" vertex="1">
          <mxGeometry x="346" y="137" width="20" height="16" as="geometry" />
        </mxCell>
        <mxCell id="CqRwOnlm2M2Rv3KDCL8K-262" value="" style="verticalLabelPosition=bottom;verticalAlign=top;html=1;shape=mxgraph.basic.polygon;polyCoords=[[0.25,0],[0.75,0],[1,0.25],[1,0.75],[0.75,1],[0.25,1],[0,0.75],[0,0.25]];polyline=0;rounded=0;sketch=0;fillColor=#f5f5f5;gradientColor=#b3b3b3;strokeColor=#666666;" parent="1" vertex="1">
          <mxGeometry x="346" y="205" width="20" height="16" as="geometry" />
        </mxCell>
        <mxCell id="XAXn_dpVB3Lyqn0WU6YM-9" style="edgeStyle=none;rounded=0;orthogonalLoop=1;jettySize=auto;html=1;entryX=0.065;entryY=0.475;entryDx=0;entryDy=0;entryPerimeter=0;dashed=1;fillColor=#f5f5f5;strokeColor=#666666;" edge="1" parent="1" source="CqRwOnlm2M2Rv3KDCL8K-264" target="CqRwOnlm2M2Rv3KDCL8K-312">
          <mxGeometry relative="1" as="geometry" />
        </mxCell>
        <mxCell id="CqRwOnlm2M2Rv3KDCL8K-264" value="a" style="text;html=1;align=center;verticalAlign=middle;resizable=0;points=[];autosize=1;strokeColor=none;fillColor=none;" parent="1" vertex="1">
          <mxGeometry x="346" y="69.5" width="20" height="20" as="geometry" />
        </mxCell>
        <mxCell id="XAXn_dpVB3Lyqn0WU6YM-12" style="edgeStyle=none;rounded=0;orthogonalLoop=1;jettySize=auto;html=1;entryX=-0.012;entryY=0.514;entryDx=0;entryDy=0;entryPerimeter=0;dashed=1;fillColor=#f5f5f5;strokeColor=#666666;" edge="1" parent="1" source="CqRwOnlm2M2Rv3KDCL8K-265" target="CqRwOnlm2M2Rv3KDCL8K-326">
          <mxGeometry relative="1" as="geometry" />
        </mxCell>
        <mxCell id="CqRwOnlm2M2Rv3KDCL8K-265" value="c" style="text;html=1;align=center;verticalAlign=middle;resizable=0;points=[];autosize=1;strokeColor=none;fillColor=none;" parent="1" vertex="1">
          <mxGeometry x="346" y="203" width="20" height="20" as="geometry" />
        </mxCell>
        <mxCell id="XAXn_dpVB3Lyqn0WU6YM-10" style="edgeStyle=none;rounded=0;orthogonalLoop=1;jettySize=auto;html=1;entryX=-0.046;entryY=0.617;entryDx=0;entryDy=0;entryPerimeter=0;dashed=1;fillColor=#f5f5f5;strokeColor=#666666;" edge="1" parent="1" source="CqRwOnlm2M2Rv3KDCL8K-266" target="CqRwOnlm2M2Rv3KDCL8K-320">
          <mxGeometry relative="1" as="geometry" />
        </mxCell>
        <mxCell id="XAXn_dpVB3Lyqn0WU6YM-18" style="edgeStyle=none;rounded=0;orthogonalLoop=1;jettySize=auto;html=1;entryX=-0.046;entryY=0.515;entryDx=0;entryDy=0;entryPerimeter=0;endArrow=classic;endFill=1;fillColor=#f5f5f5;strokeColor=#666666;dashed=1;" edge="1" parent="1" source="CqRwOnlm2M2Rv3KDCL8K-266" target="CqRwOnlm2M2Rv3KDCL8K-322">
          <mxGeometry relative="1" as="geometry" />
        </mxCell>
        <mxCell id="CqRwOnlm2M2Rv3KDCL8K-266" value="b" style="text;html=1;align=center;verticalAlign=middle;resizable=0;points=[];autosize=1;strokeColor=none;fillColor=none;" parent="1" vertex="1">
          <mxGeometry x="346" y="135" width="20" height="20" as="geometry" />
        </mxCell>
        <mxCell id="CqRwOnlm2M2Rv3KDCL8K-272" value="" style="shape=image;html=1;verticalAlign=top;verticalLabelPosition=bottom;labelBackgroundColor=#ffffff;imageAspect=0;aspect=fixed;image=https://cdn0.iconfinder.com/data/icons/phosphor-regular-vol-3/256/hexagon-128.png;rounded=0;sketch=0;fontFamily=Helvetica;fontSize=11;strokeWidth=0;imageBackground=none;imageBorder=default;" parent="1" vertex="1">
          <mxGeometry x="15" y="131" width="28" height="28" as="geometry" />
        </mxCell>
        <mxCell id="CqRwOnlm2M2Rv3KDCL8K-273" value="" style="shape=image;html=1;verticalAlign=top;verticalLabelPosition=bottom;labelBackgroundColor=#ffffff;imageAspect=0;aspect=fixed;image=https://cdn0.iconfinder.com/data/icons/phosphor-regular-vol-3/256/hexagon-128.png;rounded=0;sketch=0;fontFamily=Helvetica;fontSize=11;strokeWidth=0;imageBackground=none;imageBorder=default;" parent="1" vertex="1">
          <mxGeometry x="78" y="72" width="28" height="28" as="geometry" />
        </mxCell>
        <mxCell id="CqRwOnlm2M2Rv3KDCL8K-274" value="" style="shape=image;html=1;verticalAlign=top;verticalLabelPosition=bottom;labelBackgroundColor=#ffffff;imageAspect=0;aspect=fixed;image=https://cdn0.iconfinder.com/data/icons/phosphor-regular-vol-3/256/hexagon-128.png;rounded=0;sketch=0;fontFamily=Helvetica;fontSize=11;strokeWidth=0;imageBackground=none;imageBorder=default;" parent="1" vertex="1">
          <mxGeometry x="108" y="72" width="28" height="28" as="geometry" />
        </mxCell>
        <mxCell id="CqRwOnlm2M2Rv3KDCL8K-275" value="" style="shape=image;html=1;verticalAlign=top;verticalLabelPosition=bottom;labelBackgroundColor=#ffffff;imageAspect=0;aspect=fixed;image=https://cdn0.iconfinder.com/data/icons/phosphor-regular-vol-3/256/hexagon-128.png;rounded=0;sketch=0;fontFamily=Helvetica;fontSize=11;strokeWidth=0;imageBackground=none;imageBorder=default;" parent="1" vertex="1">
          <mxGeometry x="138" y="72" width="28" height="28" as="geometry" />
        </mxCell>
        <mxCell id="CqRwOnlm2M2Rv3KDCL8K-276" value="" style="shape=image;html=1;verticalAlign=top;verticalLabelPosition=bottom;labelBackgroundColor=#ffffff;imageAspect=0;aspect=fixed;image=https://cdn0.iconfinder.com/data/icons/phosphor-regular-vol-3/256/hexagon-128.png;rounded=0;sketch=0;fontFamily=Helvetica;fontSize=11;strokeWidth=0;imageBackground=none;imageBorder=default;" parent="1" vertex="1">
          <mxGeometry x="15" y="161" width="28" height="28" as="geometry" />
        </mxCell>
        <mxCell id="CqRwOnlm2M2Rv3KDCL8K-277" value="" style="shape=image;html=1;verticalAlign=top;verticalLabelPosition=bottom;labelBackgroundColor=#ffffff;imageAspect=0;aspect=fixed;image=https://cdn0.iconfinder.com/data/icons/phosphor-regular-vol-3/256/hexagon-128.png;rounded=0;sketch=0;fontFamily=Helvetica;fontSize=11;strokeWidth=0;imageBackground=none;imageBorder=default;" parent="1" vertex="1">
          <mxGeometry x="15" y="191" width="28" height="28" as="geometry" />
        </mxCell>
        <mxCell id="CqRwOnlm2M2Rv3KDCL8K-278" value="3" style="text;html=1;align=center;verticalAlign=middle;resizable=0;points=[];autosize=1;strokeColor=none;fillColor=none;fontSize=11;fontFamily=Helvetica;dashed=1;strokeWidth=1;" parent="1" vertex="1">
          <mxGeometry x="82" y="76" width="20" height="20" as="geometry" />
        </mxCell>
        <mxCell id="CqRwOnlm2M2Rv3KDCL8K-279" value="9" style="text;html=1;align=center;verticalAlign=middle;resizable=0;points=[];autosize=1;strokeColor=none;fillColor=none;fontSize=11;fontFamily=Helvetica;" parent="1" vertex="1">
          <mxGeometry x="112" y="75.5" width="20" height="20" as="geometry" />
        </mxCell>
        <mxCell id="CqRwOnlm2M2Rv3KDCL8K-280" value="7" style="text;html=1;align=center;verticalAlign=middle;resizable=0;points=[];autosize=1;strokeColor=none;fillColor=none;fontSize=11;fontFamily=Helvetica;" parent="1" vertex="1">
          <mxGeometry x="142" y="76" width="20" height="20" as="geometry" />
        </mxCell>
        <mxCell id="CqRwOnlm2M2Rv3KDCL8K-281" value="3" style="text;html=1;align=center;verticalAlign=middle;resizable=0;points=[];autosize=1;strokeColor=none;fillColor=none;fontSize=11;fontFamily=Helvetica;" parent="1" vertex="1">
          <mxGeometry x="19" y="135" width="20" height="20" as="geometry" />
        </mxCell>
        <mxCell id="CqRwOnlm2M2Rv3KDCL8K-282" value="9" style="text;html=1;align=center;verticalAlign=middle;resizable=0;points=[];autosize=1;strokeColor=none;fillColor=none;fontSize=11;fontFamily=Helvetica;" parent="1" vertex="1">
          <mxGeometry x="19" y="164" width="20" height="20" as="geometry" />
        </mxCell>
        <mxCell id="CqRwOnlm2M2Rv3KDCL8K-283" value="7" style="text;html=1;align=center;verticalAlign=middle;resizable=0;points=[];autosize=1;strokeColor=none;fillColor=none;fontSize=11;fontFamily=Helvetica;" parent="1" vertex="1">
          <mxGeometry x="20" y="195" width="20" height="20" as="geometry" />
        </mxCell>
        <mxCell id="CqRwOnlm2M2Rv3KDCL8K-289" value="VN Request" style="text;html=1;align=center;verticalAlign=middle;resizable=0;points=[];autosize=1;strokeColor=none;fillColor=none;fontSize=11;fontFamily=Helvetica;" parent="1" vertex="1">
          <mxGeometry x="62" y="47.5" width="80" height="20" as="geometry" />
        </mxCell>
        <mxCell id="CqRwOnlm2M2Rv3KDCL8K-290" value="Bandwidth Matrix" style="text;html=1;align=center;verticalAlign=middle;resizable=0;points=[];autosize=1;strokeColor=none;fillColor=none;fontSize=11;fontFamily=Helvetica;" parent="1" vertex="1">
          <mxGeometry x="51.5" y="226" width="110" height="20" as="geometry" />
        </mxCell>
        <mxCell id="CqRwOnlm2M2Rv3KDCL8K-292" value="Request Topology" style="text;html=1;align=center;verticalAlign=middle;resizable=0;points=[];autosize=1;strokeColor=none;fillColor=none;fontSize=11;fontFamily=Helvetica;" parent="1" vertex="1">
          <mxGeometry x="121" width="110" height="20" as="geometry" />
        </mxCell>
        <mxCell id="CqRwOnlm2M2Rv3KDCL8K-293" value="CPU&amp;nbsp;" style="text;html=1;align=center;verticalAlign=middle;resizable=0;points=[];autosize=1;strokeColor=none;fillColor=none;fontSize=11;fontFamily=Helvetica;" parent="1" vertex="1">
          <mxGeometry x="10" y="77" width="40" height="20" as="geometry" />
        </mxCell>
        <mxCell id="CqRwOnlm2M2Rv3KDCL8K-294" value="" style="endArrow=classic;html=1;rounded=1;dashed=1;sketch=0;fontFamily=Helvetica;fontSize=11;strokeColor=#ACB5C2;" parent="1" target="CqRwOnlm2M2Rv3KDCL8K-293" edge="1">
          <mxGeometry width="50" height="50" relative="1" as="geometry">
            <mxPoint x="30" y="130" as="sourcePoint" />
            <mxPoint x="78" y="78.5" as="targetPoint" />
          </mxGeometry>
        </mxCell>
        <mxCell id="CqRwOnlm2M2Rv3KDCL8K-295" value="" style="endArrow=classic;html=1;rounded=1;dashed=1;sketch=0;fontFamily=Helvetica;fontSize=11;strokeColor=#ACB5C2;exitX=0;exitY=0.5;exitDx=0;exitDy=0;entryX=0.993;entryY=0.46;entryDx=0;entryDy=0;entryPerimeter=0;fillColor=#eeeeee;" parent="1" source="CqRwOnlm2M2Rv3KDCL8K-273" target="CqRwOnlm2M2Rv3KDCL8K-293" edge="1">
          <mxGeometry width="50" height="50" relative="1" as="geometry">
            <mxPoint x="40" y="140" as="sourcePoint" />
            <mxPoint x="53" y="86" as="targetPoint" />
          </mxGeometry>
        </mxCell>
        <mxCell id="CqRwOnlm2M2Rv3KDCL8K-296" value="13" style="text;html=1;align=center;verticalAlign=middle;resizable=0;points=[];autosize=1;strokeColor=none;fillColor=none;fontSize=11;fontFamily=Helvetica;" parent="1" vertex="1">
          <mxGeometry x="230" y="100" width="30" height="20" as="geometry" />
        </mxCell>
        <mxCell id="CqRwOnlm2M2Rv3KDCL8K-301" value="" style="ellipse;whiteSpace=wrap;html=1;rounded=0;dashed=1;sketch=0;fontFamily=Helvetica;fontSize=11;strokeColor=default;strokeWidth=1;fillColor=none;gradientColor=none;" parent="1" vertex="1">
          <mxGeometry x="393" y="20.5" width="100" height="114.5" as="geometry" />
        </mxCell>
        <mxCell id="CqRwOnlm2M2Rv3KDCL8K-302" value="" style="shape=image;html=1;verticalAlign=top;verticalLabelPosition=bottom;labelBackgroundColor=#ffffff;imageAspect=0;aspect=fixed;image=https://cdn0.iconfinder.com/data/icons/phosphor-bold-vol-3-1/256/hexagon-duotone-128.png;rounded=0;dashed=1;sketch=0;fontFamily=Helvetica;fontSize=11;strokeColor=default;strokeWidth=1;fillColor=none;gradientColor=none;" parent="1" vertex="1">
          <mxGeometry x="418" y="113" width="18" height="18" as="geometry" />
        </mxCell>
        <mxCell id="CqRwOnlm2M2Rv3KDCL8K-303" value="" style="shape=image;html=1;verticalAlign=top;verticalLabelPosition=bottom;labelBackgroundColor=#ffffff;imageAspect=0;aspect=fixed;image=https://cdn0.iconfinder.com/data/icons/phosphor-bold-vol-3-1/256/hexagon-duotone-128.png;rounded=0;dashed=1;sketch=0;fontFamily=Helvetica;fontSize=11;strokeColor=default;strokeWidth=1;fillColor=none;gradientColor=none;" parent="1" vertex="1">
          <mxGeometry x="448" y="105.5" width="17.5" height="17.5" as="geometry" />
        </mxCell>
        <mxCell id="CqRwOnlm2M2Rv3KDCL8K-304" value="" style="shape=image;html=1;verticalAlign=top;verticalLabelPosition=bottom;labelBackgroundColor=#ffffff;imageAspect=0;aspect=fixed;image=https://cdn0.iconfinder.com/data/icons/phosphor-bold-vol-3-1/256/hexagon-duotone-128.png;rounded=0;dashed=1;sketch=0;fontFamily=Helvetica;fontSize=11;strokeColor=default;strokeWidth=1;fillColor=none;gradientColor=none;" parent="1" vertex="1">
          <mxGeometry x="419" y="171" width="18" height="18" as="geometry" />
        </mxCell>
        <mxCell id="CqRwOnlm2M2Rv3KDCL8K-305" value="" style="shape=image;html=1;verticalAlign=top;verticalLabelPosition=bottom;labelBackgroundColor=#ffffff;imageAspect=0;aspect=fixed;image=https://cdn0.iconfinder.com/data/icons/phosphor-bold-vol-3-1/256/hexagon-duotone-128.png;rounded=0;dashed=1;sketch=0;fontFamily=Helvetica;fontSize=11;strokeColor=default;strokeWidth=1;fillColor=none;gradientColor=none;" parent="1" vertex="1">
          <mxGeometry x="447" y="179" width="18" height="18" as="geometry" />
        </mxCell>
        <mxCell id="CqRwOnlm2M2Rv3KDCL8K-311" value="" style="verticalLabelPosition=bottom;verticalAlign=top;html=1;shape=mxgraph.basic.polygon;polyCoords=[[0.25,0],[0.75,0],[1,0.25],[1,0.75],[0.75,1],[0.25,1],[0,0.75],[0,0.25]];polyline=0;rounded=0;sketch=0;fillColor=#f5f5f5;gradientColor=#b3b3b3;strokeColor=#666666;" parent="1" vertex="1">
          <mxGeometry x="413" y="47.5" width="20" height="16" as="geometry" />
        </mxCell>
        <mxCell id="CqRwOnlm2M2Rv3KDCL8K-312" value="a" style="text;html=1;align=center;verticalAlign=middle;resizable=0;points=[];autosize=1;strokeColor=none;fillColor=none;" parent="1" vertex="1">
          <mxGeometry x="413" y="45.5" width="20" height="20" as="geometry" />
        </mxCell>
        <mxCell id="CqRwOnlm2M2Rv3KDCL8K-317" value="" style="verticalLabelPosition=bottom;verticalAlign=top;html=1;shape=mxgraph.basic.polygon;polyCoords=[[0.25,0],[0.75,0],[1,0.25],[1,0.75],[0.75,1],[0.25,1],[0,0.75],[0,0.25]];polyline=0;rounded=0;sketch=0;fillColor=#f5f5f5;gradientColor=#b3b3b3;strokeColor=#666666;" parent="1" vertex="1">
          <mxGeometry x="453" y="47.5" width="20" height="16" as="geometry" />
        </mxCell>
        <mxCell id="CqRwOnlm2M2Rv3KDCL8K-318" value="d" style="text;html=1;align=center;verticalAlign=middle;resizable=0;points=[];autosize=1;strokeColor=none;fillColor=none;" parent="1" vertex="1">
          <mxGeometry x="453" y="45.5" width="20" height="20" as="geometry" />
        </mxCell>
        <mxCell id="CqRwOnlm2M2Rv3KDCL8K-319" value="" style="verticalLabelPosition=bottom;verticalAlign=top;html=1;shape=mxgraph.basic.polygon;polyCoords=[[0.25,0],[0.75,0],[1,0.25],[1,0.75],[0.75,1],[0.25,1],[0,0.75],[0,0.25]];polyline=0;rounded=0;sketch=0;fillColor=#f5f5f5;gradientColor=#b3b3b3;strokeColor=#666666;" parent="1" vertex="1">
          <mxGeometry x="413" y="71.5" width="20" height="16" as="geometry" />
        </mxCell>
        <mxCell id="CqRwOnlm2M2Rv3KDCL8K-320" value="b" style="text;html=1;align=center;verticalAlign=middle;resizable=0;points=[];autosize=1;strokeColor=none;fillColor=none;" parent="1" vertex="1">
          <mxGeometry x="413" y="69.5" width="20" height="20" as="geometry" />
        </mxCell>
        <mxCell id="CqRwOnlm2M2Rv3KDCL8K-321" value="" style="verticalLabelPosition=bottom;verticalAlign=top;html=1;shape=mxgraph.basic.polygon;polyCoords=[[0.25,0],[0.75,0],[1,0.25],[1,0.75],[0.75,1],[0.25,1],[0,0.75],[0,0.25]];polyline=0;rounded=0;sketch=0;fillColor=#f5f5f5;gradientColor=#b3b3b3;strokeColor=#666666;" parent="1" vertex="1">
          <mxGeometry x="413" y="222" width="20" height="16" as="geometry" />
        </mxCell>
        <mxCell id="CqRwOnlm2M2Rv3KDCL8K-322" value="b" style="text;html=1;align=center;verticalAlign=middle;resizable=0;points=[];autosize=1;strokeColor=none;fillColor=none;" parent="1" vertex="1">
          <mxGeometry x="413" y="220" width="20" height="20" as="geometry" />
        </mxCell>
        <mxCell id="CqRwOnlm2M2Rv3KDCL8K-323" value="" style="verticalLabelPosition=bottom;verticalAlign=top;html=1;shape=mxgraph.basic.polygon;polyCoords=[[0.25,0],[0.75,0],[1,0.25],[1,0.75],[0.75,1],[0.25,1],[0,0.75],[0,0.25]];polyline=0;rounded=0;sketch=0;fillColor=#f5f5f5;gradientColor=#b3b3b3;strokeColor=#666666;" parent="1" vertex="1">
          <mxGeometry x="445" y="222" width="20" height="16" as="geometry" />
        </mxCell>
        <mxCell id="CqRwOnlm2M2Rv3KDCL8K-324" value="e" style="text;html=1;align=center;verticalAlign=middle;resizable=0;points=[];autosize=1;strokeColor=none;fillColor=none;" parent="1" vertex="1">
          <mxGeometry x="445" y="220" width="20" height="20" as="geometry" />
        </mxCell>
        <mxCell id="CqRwOnlm2M2Rv3KDCL8K-325" value="" style="verticalLabelPosition=bottom;verticalAlign=top;html=1;shape=mxgraph.basic.polygon;polyCoords=[[0.25,0],[0.75,0],[1,0.25],[1,0.75],[0.75,1],[0.25,1],[0,0.75],[0,0.25]];polyline=0;rounded=0;sketch=0;fillColor=#f5f5f5;gradientColor=#b3b3b3;strokeColor=#666666;" parent="1" vertex="1">
          <mxGeometry x="413" y="252" width="20" height="16" as="geometry" />
        </mxCell>
        <mxCell id="CqRwOnlm2M2Rv3KDCL8K-326" value="c" style="text;html=1;align=center;verticalAlign=middle;resizable=0;points=[];autosize=1;strokeColor=none;fillColor=none;" parent="1" vertex="1">
          <mxGeometry x="413" y="250" width="20" height="20" as="geometry" />
        </mxCell>
        <mxCell id="XAXn_dpVB3Lyqn0WU6YM-14" style="edgeStyle=none;rounded=0;orthogonalLoop=1;jettySize=auto;html=1;dashed=1;endArrow=none;endFill=0;fillColor=#f5f5f5;strokeColor=#666666;" edge="1" parent="1" source="CqRwOnlm2M2Rv3KDCL8K-327" target="CqRwOnlm2M2Rv3KDCL8K-328">
          <mxGeometry relative="1" as="geometry" />
        </mxCell>
        <mxCell id="XAXn_dpVB3Lyqn0WU6YM-15" style="edgeStyle=none;rounded=0;orthogonalLoop=1;jettySize=auto;html=1;endArrow=none;endFill=0;fillColor=#f5f5f5;strokeColor=#666666;" edge="1" parent="1" source="CqRwOnlm2M2Rv3KDCL8K-327" target="CqRwOnlm2M2Rv3KDCL8K-329">
          <mxGeometry relative="1" as="geometry" />
        </mxCell>
        <mxCell id="XAXn_dpVB3Lyqn0WU6YM-16" style="edgeStyle=none;rounded=0;orthogonalLoop=1;jettySize=auto;html=1;entryX=0.506;entryY=-0.022;entryDx=0;entryDy=0;entryPerimeter=0;endArrow=none;endFill=0;fillColor=#f5f5f5;strokeColor=#666666;" edge="1" parent="1" source="CqRwOnlm2M2Rv3KDCL8K-327" target="CqRwOnlm2M2Rv3KDCL8K-330">
          <mxGeometry relative="1" as="geometry" />
        </mxCell>
        <mxCell id="CqRwOnlm2M2Rv3KDCL8K-327" value="A" style="text;html=1;align=center;verticalAlign=middle;resizable=0;points=[];autosize=1;strokeColor=none;fillColor=none;fontSize=11;fontFamily=Helvetica;" parent="1" vertex="1">
          <mxGeometry x="417" y="111" width="20" height="20" as="geometry" />
        </mxCell>
        <mxCell id="XAXn_dpVB3Lyqn0WU6YM-17" style="edgeStyle=none;rounded=0;orthogonalLoop=1;jettySize=auto;html=1;endArrow=none;endFill=0;fillColor=#f5f5f5;strokeColor=#666666;" edge="1" parent="1" source="CqRwOnlm2M2Rv3KDCL8K-328" target="CqRwOnlm2M2Rv3KDCL8K-329">
          <mxGeometry relative="1" as="geometry" />
        </mxCell>
        <mxCell id="CqRwOnlm2M2Rv3KDCL8K-328" value="B" style="text;html=1;align=center;verticalAlign=middle;resizable=0;points=[];autosize=1;strokeColor=none;fillColor=none;fontSize=11;fontFamily=Helvetica;" parent="1" vertex="1">
          <mxGeometry x="447" y="104" width="20" height="20" as="geometry" />
        </mxCell>
        <mxCell id="XAXn_dpVB3Lyqn0WU6YM-13" style="edgeStyle=none;rounded=0;orthogonalLoop=1;jettySize=auto;html=1;dashed=1;endArrow=none;endFill=0;fillColor=#f5f5f5;strokeColor=#666666;" edge="1" parent="1" source="CqRwOnlm2M2Rv3KDCL8K-329" target="CqRwOnlm2M2Rv3KDCL8K-330">
          <mxGeometry relative="1" as="geometry" />
        </mxCell>
        <mxCell id="CqRwOnlm2M2Rv3KDCL8K-329" value="C" style="text;html=1;align=center;verticalAlign=middle;resizable=0;points=[];autosize=1;strokeColor=none;fillColor=none;fontSize=11;fontFamily=Helvetica;" parent="1" vertex="1">
          <mxGeometry x="417" y="170" width="20" height="20" as="geometry" />
        </mxCell>
        <mxCell id="CqRwOnlm2M2Rv3KDCL8K-330" value="B" style="text;html=1;align=center;verticalAlign=middle;resizable=0;points=[];autosize=1;strokeColor=none;fillColor=none;fontSize=11;fontFamily=Helvetica;" parent="1" vertex="1">
          <mxGeometry x="446" y="178" width="20" height="20" as="geometry" />
        </mxCell>
        <mxCell id="CqRwOnlm2M2Rv3KDCL8K-334" value="" style="shape=image;html=1;verticalAlign=top;verticalLabelPosition=bottom;labelBackgroundColor=#ffffff;imageAspect=0;aspect=fixed;image=https://cdn0.iconfinder.com/data/icons/phosphor-regular-vol-3/256/hexagon-128.png;rounded=0;sketch=0;fontFamily=Helvetica;fontSize=11;strokeWidth=0;imageBackground=none;imageBorder=default;" parent="1" vertex="1">
          <mxGeometry x="453" y="27.5" width="20" height="20" as="geometry" />
        </mxCell>
        <mxCell id="CqRwOnlm2M2Rv3KDCL8K-335" value="" style="shape=image;html=1;verticalAlign=top;verticalLabelPosition=bottom;labelBackgroundColor=#ffffff;imageAspect=0;aspect=fixed;image=https://cdn0.iconfinder.com/data/icons/phosphor-regular-vol-3/256/hexagon-128.png;rounded=0;sketch=0;fontFamily=Helvetica;fontSize=11;strokeWidth=0;imageBackground=none;imageBorder=default;" parent="1" vertex="1">
          <mxGeometry x="413" y="27.5" width="20" height="20" as="geometry" />
        </mxCell>
        <mxCell id="CqRwOnlm2M2Rv3KDCL8K-336" value="" style="shape=image;html=1;verticalAlign=top;verticalLabelPosition=bottom;labelBackgroundColor=#ffffff;imageAspect=0;aspect=fixed;image=https://cdn0.iconfinder.com/data/icons/phosphor-regular-vol-3/256/hexagon-128.png;rounded=0;sketch=0;fontFamily=Helvetica;fontSize=11;strokeWidth=0;imageBackground=none;imageBorder=default;" parent="1" vertex="1">
          <mxGeometry x="413" y="87.5" width="20" height="20" as="geometry" />
        </mxCell>
        <mxCell id="CqRwOnlm2M2Rv3KDCL8K-337" value="" style="shape=image;html=1;verticalAlign=top;verticalLabelPosition=bottom;labelBackgroundColor=#ffffff;imageAspect=0;aspect=fixed;image=https://cdn0.iconfinder.com/data/icons/phosphor-regular-vol-3/256/hexagon-128.png;rounded=0;sketch=0;fontFamily=Helvetica;fontSize=11;strokeWidth=0;imageBackground=none;imageBorder=default;" parent="1" vertex="1">
          <mxGeometry x="413" y="202" width="20" height="20" as="geometry" />
        </mxCell>
        <mxCell id="CqRwOnlm2M2Rv3KDCL8K-338" value="" style="shape=image;html=1;verticalAlign=top;verticalLabelPosition=bottom;labelBackgroundColor=#ffffff;imageAspect=0;aspect=fixed;image=https://cdn0.iconfinder.com/data/icons/phosphor-regular-vol-3/256/hexagon-128.png;rounded=0;sketch=0;fontFamily=Helvetica;fontSize=11;strokeWidth=0;imageBackground=none;imageBorder=default;" parent="1" vertex="1">
          <mxGeometry x="445" y="202" width="20" height="20" as="geometry" />
        </mxCell>
        <mxCell id="CqRwOnlm2M2Rv3KDCL8K-339" value="" style="shape=image;html=1;verticalAlign=top;verticalLabelPosition=bottom;labelBackgroundColor=#ffffff;imageAspect=0;aspect=fixed;image=https://cdn0.iconfinder.com/data/icons/phosphor-regular-vol-3/256/hexagon-128.png;rounded=0;sketch=0;fontFamily=Helvetica;fontSize=11;strokeWidth=0;imageBackground=none;imageBorder=default;" parent="1" vertex="1">
          <mxGeometry x="413" y="268" width="20" height="20" as="geometry" />
        </mxCell>
        <mxCell id="CqRwOnlm2M2Rv3KDCL8K-340" value="7" style="text;html=1;align=center;verticalAlign=middle;resizable=0;points=[];autosize=1;strokeColor=none;fillColor=none;fontSize=11;fontFamily=Helvetica;" parent="1" vertex="1">
          <mxGeometry x="453" y="27.5" width="20" height="20" as="geometry" />
        </mxCell>
        <mxCell id="CqRwOnlm2M2Rv3KDCL8K-341" value="5" style="text;html=1;align=center;verticalAlign=middle;resizable=0;points=[];autosize=1;strokeColor=none;fillColor=none;fontSize=11;fontFamily=Helvetica;" parent="1" vertex="1">
          <mxGeometry x="413" y="87.5" width="20" height="20" as="geometry" />
        </mxCell>
        <mxCell id="CqRwOnlm2M2Rv3KDCL8K-342" value="4" style="text;html=1;align=center;verticalAlign=middle;resizable=0;points=[];autosize=1;strokeColor=none;fillColor=none;fontSize=11;fontFamily=Helvetica;" parent="1" vertex="1">
          <mxGeometry x="413" y="27.5" width="20" height="20" as="geometry" />
        </mxCell>
        <mxCell id="CqRwOnlm2M2Rv3KDCL8K-343" value="6" style="text;html=1;align=center;verticalAlign=middle;resizable=0;points=[];autosize=1;strokeColor=none;fillColor=none;fontSize=11;fontFamily=Helvetica;" parent="1" vertex="1">
          <mxGeometry x="413" y="202" width="20" height="20" as="geometry" />
        </mxCell>
        <mxCell id="CqRwOnlm2M2Rv3KDCL8K-344" value="8" style="text;html=1;align=center;verticalAlign=middle;resizable=0;points=[];autosize=1;strokeColor=none;fillColor=none;fontSize=11;fontFamily=Helvetica;" parent="1" vertex="1">
          <mxGeometry x="445" y="202" width="20" height="20" as="geometry" />
        </mxCell>
        <mxCell id="CqRwOnlm2M2Rv3KDCL8K-345" value="6" style="text;html=1;align=center;verticalAlign=middle;resizable=0;points=[];autosize=1;strokeColor=none;fillColor=none;fontSize=11;fontFamily=Helvetica;" parent="1" vertex="1">
          <mxGeometry x="413" y="268" width="20" height="20" as="geometry" />
        </mxCell>
        <mxCell id="XAXn_dpVB3Lyqn0WU6YM-19" value="12" style="text;html=1;align=center;verticalAlign=middle;resizable=0;points=[];autosize=1;strokeColor=none;fillColor=none;" vertex="1" parent="1">
          <mxGeometry x="403" y="139" width="30" height="20" as="geometry" />
        </mxCell>
        <mxCell id="XAXn_dpVB3Lyqn0WU6YM-20" value="6" style="text;html=1;align=center;verticalAlign=middle;resizable=0;points=[];autosize=1;strokeColor=none;fillColor=none;" vertex="1" parent="1">
          <mxGeometry x="442" y="127" width="20" height="20" as="geometry" />
        </mxCell>
        <mxCell id="XAXn_dpVB3Lyqn0WU6YM-21" value="7" style="text;html=1;align=center;verticalAlign=middle;resizable=0;points=[];autosize=1;strokeColor=none;fillColor=none;" vertex="1" parent="1">
          <mxGeometry x="446" y="155" width="20" height="20" as="geometry" />
        </mxCell>
        <mxCell id="XAXn_dpVB3Lyqn0WU6YM-22" value="9" style="text;html=1;align=center;verticalAlign=middle;resizable=0;points=[];autosize=1;strokeColor=none;fillColor=none;" vertex="1" parent="1">
          <mxGeometry x="430" y="103" width="20" height="20" as="geometry" />
        </mxCell>
        <mxCell id="XAXn_dpVB3Lyqn0WU6YM-23" value="6" style="text;html=1;align=center;verticalAlign=middle;resizable=0;points=[];autosize=1;strokeColor=none;fillColor=none;" vertex="1" parent="1">
          <mxGeometry x="429" y="180" width="20" height="20" as="geometry" />
        </mxCell>
      </root>
    </mxGraphModel>
  </diagram>
</mxfile>
